<svg width="128" height="128" viewBox="0 0 128 128" fill="none" xmlns="http://www.w3.org/2000/svg">
  <defs>
    <linearGradient id="orbit" x1="32" y1="26" x2="96" y2="98" gradientUnits="userSpaceOnUse">
      <stop stop-color="#2FB59E"/>
      <stop offset="0.44" stop-color="#2A79BE"/>
      <stop offset="1" stop-color="#1E3A8A"/>
    </linearGradient>
    <linearGradient id="core" x1="55" y1="55" x2="73" y2="73" gradientUnits="userSpaceOnUse">
      <stop stop-color="#56C7B7"/>
      <stop offset="1" stop-color="#1E40AF"/>
    </linearGradient>
    <linearGradient id="ring" x1="42" y1="42" x2="86" y2="86" gradientUnits="userSpaceOnUse">
      <stop stop-color="#67CDBF"/>
      <stop offset="1" stop-color="#4770D6"/>
    </linearGradient>
    <radialGradient id="coreGlow" cx="0" cy="0" r="1" gradientUnits="userSpaceOnUse" gradientTransform="translate(64 64) rotate(90) scale(30)">
      <stop stop-color="#6FD1C7" stop-opacity="0.08"/>
      <stop offset="1" stop-color="#7CF7E7" stop-opacity="0"/>
    </radialGradient>
    <filter id="softGlow" x="14" y="14" width="100" height="100" filterUnits="userSpaceOnUse" color-interpolation-filters="sRGB">
      <feFlood flood-opacity="0" result="BackgroundImageFix"/>
      <feBlend mode="normal" in="SourceGraphic" in2="BackgroundImageFix" result="shape"/>
      <feGaussianBlur stdDeviation="6.5" result="effect1_foregroundBlur"/>
    </filter>
  </defs>

  <g filter="url(#softGlow)" opacity="0.1">
    <path d="M64 29C81 29 91 40 91 53C85 52 79 54 73 59" stroke="url(#orbit)" stroke-width="9.5" stroke-linecap="round" stroke-linejoin="round"/>
    <path d="M89 77C80 91 65 96 52 89C56 84 58 79 58 72" stroke="url(#orbit)" stroke-width="9.5" stroke-linecap="round" stroke-linejoin="round"/>
    <path d="M39 77C30 64 33 45 46 37C48 43 52 47 58 50" stroke="url(#orbit)" stroke-width="9.5" stroke-linecap="round" stroke-linejoin="round"/>
  </g>

  <circle cx="64" cy="64" r="17" fill="url(#coreGlow)"/>

  <path d="M64 29C81 29 91 40 91 53C85 52 79 54 73 59" stroke="url(#orbit)" stroke-width="9.5" stroke-linecap="round" stroke-linejoin="round"/>
  <path d="M89 77C80 91 65 96 52 89C56 84 58 79 58 72" stroke="url(#orbit)" stroke-width="9.5" stroke-linecap="round" stroke-linejoin="round"/>
  <path d="M39 77C30 64 33 45 46 37C48 43 52 47 58 50" stroke="url(#orbit)" stroke-width="9.5" stroke-linecap="round" stroke-linejoin="round"/>

  <circle cx="64" cy="64" r="8.5" fill="url(#core)"/>
  <circle cx="64" cy="64" r="13" stroke="url(#ring)" stroke-opacity="0.16" stroke-width="1.4"/>
  <circle cx="64" cy="64" r="18" stroke="url(#ring)" stroke-opacity="0.08" stroke-width="1.1"/>
  <circle cx="64" cy="64" r="2.8" fill="#F5FCFB"/>

  <circle cx="64" cy="29" r="4.6" fill="url(#orbit)"/>
  <circle cx="89" cy="77" r="4.6" fill="url(#orbit)"/>
  <circle cx="39" cy="77" r="4.6" fill="url(#orbit)"/>
  <circle cx="64" cy="29" r="7" fill="url(#orbit)" fill-opacity="0.06"/>
  <circle cx="89" cy="77" r="7" fill="url(#orbit)" fill-opacity="0.06"/>
  <circle cx="39" cy="77" r="7" fill="url(#orbit)" fill-opacity="0.06"/>
</svg>
